<?xml version="1.0" standalone="no"?>
<!DOCTYPE svg PUBLIC "-//W3C//DTD SVG 20010904//EN"
 "http://www.w3.org/TR/2001/REC-SVG-20010904/DTD/svg10.dtd">
<svg version="1.0" xmlns="http://www.w3.org/2000/svg"
 width="500.000000pt" height="500.000000pt" viewBox="0 0 500.000000 500.000000"
 preserveAspectRatio="xMidYMid meet">
<metadata>
Created by potrace 1.11, written by Peter Selinger 2001-2013
</metadata>
<g transform="translate(0.000000,500.000000) scale(0.100000,-0.100000)"
fill="#000000" stroke="none">
<path d="M0 2500 l0 -2500 2500 0 2500 0 0 2500 0 2500 -2500 0 -2500 0 0
-2500z m2161 1786 c122 -22 235 -59 231 -77 -3 -16 -133 -393 -136 -397 -2 -1
-38 7 -82 18 -115 30 -271 38 -327 16 -90 -34 -128 -110 -135 -268 l-5 -108
247 0 246 0 0 -215 0 -216 -242 1 -243 1 -3 -820 -2 -821 -280 0 -280 0 0 820
0 820 -155 0 -155 0 0 140 0 141 154 73 153 73 6 174 c4 136 10 190 27 249 70
244 229 368 523 410 87 12 355 4 458 -14z m1420 -786 c130 -13 287 -50 387
-91 42 -18 80 -35 84 -38 6 -5 -145 -417 -157 -430 -3 -2 -67 17 -142 43 -166
56 -221 67 -336 67 -215 0 -342 -104 -409 -336 -21 -72 -23 -101 -23 -285 0
-184 2 -213 23 -285 44 -150 109 -235 222 -289 64 -31 67 -31 215 -30 186 1
262 20 425 101 63 32 118 60 123 61 4 2 7 -103 7 -232 l0 -236 -47 -30 c-119
-76 -285 -117 -508 -127 -521 -22 -849 173 -978 583 -47 150 -61 252 -61 469
0 218 12 315 60 466 85 271 267 466 520 558 175 64 368 83 595 61z"/>
</g>
</svg>
